<svg width="30" height="30" viewBox="0 0 30 30" fill="none" xmlns="http://www.w3.org/2000/svg">
<path d="M15 0C6.73377 0 0 6.73377 0 15C0 23.2662 6.73377 30 15 30C23.2662 30 30 23.2662 30 15C30 6.73377 23.2662 0 15 0ZM15 2.30769C22.0222 2.30769 27.6923 7.97776 27.6923 15C27.6923 22.0222 22.0222 27.6923 15 27.6923C7.97776 27.6923 2.30769 22.0222 2.30769 15C2.30769 7.97776 7.97776 2.30769 15 2.30769ZM21.1028 9.57332L12.6923 17.9838L8.88822 14.1887L7.26563 15.8113L12.6923 21.247L22.7434 11.1959L21.1028 9.57332Z" />
</svg>
