<svg width="16" height="15" viewBox="0 0 16 15" fill="none" xmlns="http://www.w3.org/2000/svg">
<path fill-rule="evenodd" clip-rule="evenodd" d="M8 15C12.4183 15 16 11.6421 16 7.5C16 3.35786 12.4183 0 8 0C3.58172 0 0 3.35786 0 7.5C0 11.6421 3.58172 15 8 15ZM11.7071 6.28791C12.0976 5.9218 12.0976 5.3282 11.7071 4.96209C11.3166 4.59597 10.6834 4.59597 10.2929 4.96209L7 8.04918L5.70711 6.83709C5.31658 6.47097 4.68342 6.47097 4.29289 6.83709C3.90237 7.2032 3.90237 7.7968 4.29289 8.16291L6.29289 10.0379C6.68342 10.404 7.31658 10.404 7.70711 10.0379L11.7071 6.28791Z" fill="#00D186"/>
</svg>
