<svg width="24" height="24" viewBox="0 0 24 24" fill="none" xmlns="http://www.w3.org/2000/svg">
<path d="M0 0V1.83075H3.6615C4.05483 1.83075 4.39094 2.0882 4.51967 2.46007L6.22885 17.7139C6.38617 19.0942 7.5733 20.1526 8.96067 20.1526H20.1383V18.3218H8.96067C8.48868 18.3218 8.1025 17.9785 8.05244 17.5137L7.93802 16.4911H19.5518C20.8534 16.4911 21.9905 15.5614 22.2479 14.2884L24 5.50655H6.70083L6.30751 2.01669L6.2789 1.93087C5.92849 0.78665 4.86293 0.00715091 3.6615 0H0ZM18.3075 20.1526C17.2992 20.1526 16.4768 20.975 16.4768 21.9833C16.4768 22.9917 17.2992 23.8141 18.3075 23.8141C19.3159 23.8141 20.1383 22.9917 20.1383 21.9833C20.1383 20.975 19.3159 20.1526 18.3075 20.1526ZM9.15376 20.1526C8.14541 20.1526 7.323 20.975 7.323 21.9833C7.323 22.9917 8.14541 23.8141 9.15376 23.8141C10.1621 23.8141 10.9845 22.9917 10.9845 21.9833C10.9845 20.975 10.1621 20.1526 9.15376 20.1526ZM6.90823 7.33731H21.7688L20.4529 13.9237C20.36 14.36 19.9952 14.6603 19.5518 14.6603H7.73063L6.90823 7.33731Z" fill="white"/>
</svg>
