<svg width="30" height="30" viewBox="0 0 30 30" fill="none" xmlns="http://www.w3.org/2000/svg">
<path d="M15 0C6.73377 0 0 6.73377 0 15C0 23.2662 6.73377 30 15 30C23.2662 30 30 23.2662 30 15C30 6.73377 23.2662 0 15 0ZM15 2.30769C22.0222 2.30769 27.6923 7.97776 27.6923 15C27.6923 22.0222 22.0222 27.6923 15 27.6923C7.97776 27.6923 2.30769 22.0222 2.30769 15C2.30769 7.97776 7.97776 2.30769 15 2.30769ZM10.3846 8.75301L8.75301 10.3846L9.57332 11.1959L13.3684 15L9.57332 18.8041L8.75301 19.6154L10.3846 21.247L11.1959 20.4267L15 16.6316L18.8041 20.4267L19.6154 21.247L21.247 19.6154L20.4267 18.8041L16.6316 15L20.4267 11.1959L21.247 10.3846L19.6154 8.75301L18.8041 9.57332L15 13.3684L11.1959 9.57332L10.3846 8.75301Z" />
</svg>
