<svg width="18" height="18" viewBox="0 0 18 18" fill="none" xmlns="http://www.w3.org/2000/svg">
<path d="M8.93808 5.85705L4.33516 1.12032C3.95402 0.728088 3.35597 0.744366 2.97734 1.134L0.960732 3.20924C0.587812 3.593 0.576157 4.22446 0.947438 4.60653L5.55035 9.34326L0.947438 14.08C0.566292 14.4722 0.582109 15.0877 0.960732 15.4773L2.97734 17.5525C3.35026 17.9363 3.96388 17.9483 4.33516 17.5662L8.93808 12.8295L13.541 17.5662C13.9221 17.9584 14.5202 17.9422 14.8988 17.5525L16.9154 15.4773C17.2883 15.0935 17.3 14.4621 16.9287 14.08L12.3258 9.34326L16.9287 4.60653C17.3099 4.2143 17.294 3.59887 16.9154 3.20924L14.8988 1.134C14.5259 0.750234 13.9123 0.738241 13.541 1.12031L8.93808 5.85705Z" fill="#A8A8A8"/>
</svg>
