<svg width="30" height="30" viewBox="0 0 30 30" fill="none" xmlns="http://www.w3.org/2000/svg">
<path d="M15 0C14.279 0 13.6957 0.58339 13.6957 1.30435C13.6957 2.02531 14.279 2.6087 15 2.6087C15.721 2.6087 16.3043 2.02531 16.3043 1.30435C16.3043 0.58339 15.721 0 15 0ZM15 3.91304C14.279 3.91304 13.6957 4.49643 13.6957 5.21739C13.6957 5.93835 14.279 6.52174 15 6.52174C15.721 6.52174 16.3043 5.93835 16.3043 5.21739C16.3043 4.49643 15.721 3.91304 15 3.91304ZM14.8573 7.80571C14.1848 7.87959 13.6804 8.45533 13.6957 9.13043V20.3397L11.3519 17.9959C11.1073 17.7386 10.7685 17.5909 10.4144 17.5883C9.88451 17.5934 9.41067 17.9169 9.2145 18.4086C9.01579 18.9003 9.13808 19.4608 9.51766 19.8302L13.9198 24.212C13.9377 24.2476 13.9581 24.2807 13.981 24.3139L14.0829 24.3954C14.3606 24.6756 14.7478 24.8132 15.1401 24.775C15.5324 24.7342 15.884 24.5202 16.1005 24.1916L20.4823 19.8302C20.8721 19.5168 21.0479 19.0099 20.9358 18.5233C20.8237 18.0341 20.4441 17.6546 19.955 17.5425C19.4684 17.4304 18.9614 17.6061 18.6481 17.9959L16.3043 20.3397V9.13043C16.3094 8.77632 16.1719 8.4375 15.9222 8.18784C15.6726 7.93818 15.3337 7.80061 14.9796 7.80571C14.9389 7.80316 14.8981 7.80316 14.8573 7.80571ZM0 19.5652V27.3302C0 28.4282 0.919667 29.3478 2.01766 29.3478H27.9823C29.0803 29.3478 30 28.4282 30 27.3302V19.5652H27.3913V26.7391H2.6087V19.5652H0Z" />
</svg>
