<svg width="39" height="50" viewBox="0 0 39 50" fill="none" xmlns="http://www.w3.org/2000/svg">
<path d="M33.668 8.09044C33.1957 7.63221 32.7082 7.15895 32.2283 6.6857C31.7408 6.21244 31.2686 5.73167 30.7963 5.25841C27.46 1.90054 25.4719 0 23.4 0H7.8C3.50391 0 0 3.45553 0 7.69231V42.3077C0 46.5445 3.50391 50 7.8 50H31.2C35.4961 50 39 46.5445 39 42.3077V15.3846C39 13.3413 37.0729 11.3807 33.668 8.09044ZM35.1 42.3077C35.1 44.4336 33.3557 46.1538 31.2 46.1538H7.8C5.64434 46.1538 3.9 44.4336 3.9 42.3077V7.69231C3.9 5.56641 5.64434 3.84615 7.8 3.84615L22.0137 3.83864C23.4229 4.19171 23.4 5.89693 23.4 7.60216V13.4615C23.4 14.5207 24.276 15.3846 25.35 15.3846H31.2C33.1424 15.3846 35.1 15.3921 35.1 17.3077V42.3077Z" />
</svg>
