<svg width="24" height="21" viewBox="0 0 24 21" fill="none" xmlns="http://www.w3.org/2000/svg">
<path fill-rule="evenodd" clip-rule="evenodd" d="M14.0069 6.85714C14.7129 8.85461 16.6179 10.2857 18.8571 10.2857C21.6975 10.2857 24 7.98318 24 5.14286C24 2.30254 21.6975 0 18.8571 0C16.6179 0 14.7129 1.4311 14.0069 3.42857H1.71429C0.767512 3.42857 0 4.19608 0 5.14286C0 6.08963 0.767512 6.85714 1.71429 6.85714H14.0069ZM20.5714 5.14286C20.5714 6.08963 19.8039 6.85714 18.8571 6.85714C17.9104 6.85714 17.1429 6.08963 17.1429 5.14286C17.1429 4.19608 17.9104 3.42857 18.8571 3.42857C19.8039 3.42857 20.5714 4.19608 20.5714 5.14286Z" fill="white"/>
<path fill-rule="evenodd" clip-rule="evenodd" d="M9.99308 13.7143C9.28707 11.7168 7.38209 10.2857 5.14286 10.2857C2.30254 10.2857 0 12.5882 0 15.4286C0 18.2689 2.30254 20.5714 5.14286 20.5714C7.38209 20.5714 9.28707 19.1403 9.99308 17.1429H22.2857C23.2325 17.1429 24 16.3753 24 15.4286C24 14.4818 23.2325 13.7143 22.2857 13.7143H9.99308ZM5.14286 17.1429C4.19608 17.1429 3.42857 16.3753 3.42857 15.4286C3.42857 14.4818 4.19608 13.7143 5.14286 13.7143C6.08963 13.7143 6.85714 14.4818 6.85714 15.4286C6.85714 16.3753 6.08963 17.1429 5.14286 17.1429Z" fill="white"/>
</svg>
