<svg width="37" height="40" viewBox="0 0 37 40" fill="none" xmlns="http://www.w3.org/2000/svg">
<path opacity="1" d="M18.4111 0.000744444C18.0831 0.0119468 17.7672 0.127762 17.5097 0.331267L2.93264 11.8154C1.08252 13.2735 0 15.5015 0 17.857V37.4359C0 38.8345 1.16552 40 2.56405 40H12.8203C14.2188 40 15.3843 38.8345 15.3843 37.4359V27.1797C15.3843 26.8771 15.5945 26.6669 15.8971 26.6669H21.0252C21.3279 26.6669 21.5381 26.8771 21.5381 27.1797V37.4359C21.5381 38.8345 22.7036 40 24.1021 40H34.3583C35.7569 40 36.9224 38.8345 36.9224 37.4359V17.857C36.9224 15.5015 35.8399 13.2735 33.9897 11.8154L19.4127 0.331267C19.1282 0.106528 18.7735 -0.0105284 18.4111 0.000744444ZM18.4612 3.49828L32.0867 14.2333C33.1986 15.1095 33.8455 16.4423 33.8455 17.857V36.9231H24.6149V27.1797C24.6149 25.2157 22.9893 23.5901 21.0252 23.5901H15.8971C13.9331 23.5901 12.3075 25.2157 12.3075 27.1797V36.9231H3.07687V17.857C3.07687 16.4423 3.72377 15.1095 4.83565 14.2333L18.4612 3.49828Z" fill="#00ABB9"/>
</svg>
