<svg width="18" height="24" viewBox="0 0 18 24" fill="none" xmlns="http://www.w3.org/2000/svg">
<path d="M9 12C10.6569 12 12 10.6569 12 9C12 7.34315 10.6569 6 9 6C7.34315 6 6 7.34315 6 9C6 10.6569 7.34315 12 9 12Z" fill="white"/>
<path fill-rule="evenodd" clip-rule="evenodd" d="M18 9C18 11.0088 17.3419 12.8638 16.2295 14.3613L8.99991 24L1.77045 14.3613C0.658098 12.8638 0 11.0088 0 9C0 4.02944 4.02944 0 9 0C13.9706 0 18 4.02944 18 9ZM15 9C15 10.3404 14.564 11.5703 13.8251 12.5673L8.99994 19.0002L4.17501 12.5674C3.43602 11.5704 3 10.3405 3 9C3 5.68629 5.68629 3 9 3C12.3137 3 15 5.68629 15 9Z" fill="white"/>
</svg>
