<svg width="44" height="26" viewBox="0 0 44 26" fill="none" xmlns="http://www.w3.org/2000/svg">
<path d="M30 0C28.1615 -2.53551e-08 26.341 0.335145 24.6424 0.986301C22.9439 1.63746 21.4005 2.59187 20.1005 3.79505C18.8005 4.99823 17.7693 6.42661 17.0657 7.99864C16.3621 9.57067 16 11.2556 16 12.9571C16 14.6587 16.3621 16.3436 17.0657 17.9156C17.7693 19.4876 18.8005 20.916 20.1005 22.1192C21.4005 23.3224 22.9439 24.2768 24.6424 24.9279C26.341 25.5791 28.1615 25.9142 30 25.9142C31.8385 25.9142 33.659 25.5791 35.3576 24.9279C37.0561 24.2768 38.5995 23.3224 39.8995 22.1192C41.1995 20.916 42.2307 19.4876 42.9343 17.9156C43.6379 16.3436 44 14.6587 44 12.9571C44 11.2556 43.6379 9.57067 42.9343 7.99864C42.2307 6.42661 41.1995 4.99823 39.8995 3.79505C38.5995 2.59187 37.0561 1.63746 35.3576 0.986301C33.659 0.335145 31.8385 -2.53551e-08 30 0Z" fill="#FF9800"/>
<path d="M14 0C12.1615 -2.53551e-08 10.341 0.335145 8.64243 0.986301C6.94387 1.63746 5.40053 2.59187 4.1005 3.79505C2.80048 4.99823 1.76925 6.42661 1.06569 7.99864C0.362121 9.57067 0 11.2556 0 12.9571C0 14.6587 0.362121 16.3436 1.06569 17.9156C1.76925 19.4876 2.80048 20.916 4.1005 22.1192C5.40053 23.3224 6.94387 24.2768 8.64243 24.9279C10.341 25.5791 12.1615 25.9142 14 25.9142C15.8385 25.9142 17.659 25.5791 19.3576 24.9279C21.0561 24.2768 22.5995 23.3224 23.8995 22.1192C25.1995 20.916 26.2307 19.4876 26.9343 17.9156C27.6379 16.3436 28 14.6587 28 12.9571C28 11.2556 27.6379 9.57067 26.9343 7.99864C26.2307 6.42661 25.1995 4.99823 23.8995 3.79505C22.5995 2.59187 21.0561 1.63746 19.3576 0.986301C17.659 0.335145 15.8385 -2.53551e-08 14 0Z" fill="#D50000"/>
<path d="M16 12.9568C16 17.3576 18.376 21.2401 22 23.5816C25.624 21.2401 28 17.3576 28 12.9568C28 8.55606 25.624 4.67356 22 2.33203C18.376 4.67356 16 8.55606 16 12.9568Z" fill="#FF3D00"/>
</svg>
