<svg width="47" height="50" viewBox="0 0 47 50" fill="none" xmlns="http://www.w3.org/2000/svg">
<path d="M15.3846 0C11.1553 0 7.69231 3.46304 7.69231 7.69231V21.1538H1.92308C0.766227 21.1538 0 22.1154 0 23.0769V34.6154C0 35.5769 0.766227 36.5385 1.92308 36.5385H7.69231V42.3077C7.69231 46.537 11.1553 50 15.3846 50H38.4615C42.6908 50 46.1538 46.537 46.1538 42.3077V15.3846C46.1538 13.2662 44.2533 11.3206 40.9856 8.05288C40.4072 7.66977 40.0015 7.11388 39.4231 6.73077C39.04 6.15234 38.4841 5.74669 38.101 5.16827C34.8332 1.90054 32.8876 0 30.7692 0H15.3846ZM15.3846 3.84615H29.4471C30.7918 4.22927 30.7692 5.97206 30.7692 7.51202V13.2812C30.7692 14.4381 31.5355 15.2043 32.6923 15.2043H38.4615C40.3846 15.2043 42.3077 15.2043 42.3077 17.1274V42.1274C42.3077 44.2458 40.5799 45.9736 38.4615 45.9736H15.3846C13.2662 45.9736 11.5385 44.2458 11.5385 42.1274V36.5385H32.6923C33.8492 36.5385 34.6154 35.5769 34.6154 34.6154V23.0769C34.6154 22.1154 33.8492 21.1538 32.6923 21.1538H11.5385V7.69231C11.5385 5.57392 13.2662 3.84615 15.3846 3.84615ZM5.40865 23.0769C5.9345 23.0544 6.51292 23.0769 7.09135 23.0769C8.436 23.0769 9.63041 23.46 10.3966 24.0385C11.1629 24.6169 11.5385 25.5859 11.5385 26.7428C11.3432 27.8996 11.1629 28.8612 10.3966 29.6274C9.63041 30.3936 8.436 30.7692 7.09135 30.7692H6.73077V34.4351C6.73077 34.6304 6.56551 34.7957 6.37019 34.7957H4.02644C4.02644 34.6004 3.84615 34.4351 3.84615 34.4351V23.6779C3.84615 23.4826 4.02644 23.4525 4.02644 23.2572C4.40956 23.1596 4.88281 23.0995 5.40865 23.0769ZM13.6418 23.0769H16.7067C18.6298 23.0769 20.012 23.4525 20.9736 24.2188C22.1304 25.1803 22.7163 26.7428 22.7163 28.6659C22.7163 31.1674 21.7398 32.527 20.9736 33.2933C20.012 34.2548 18.2843 34.7957 16.1659 34.7957C15.009 34.7957 14.0249 34.8107 13.6418 34.6154C13.6418 34.6154 13.4615 34.4501 13.4615 34.2548V23.4375C13.4615 23.2422 13.6418 23.2722 13.6418 23.0769ZM25.1803 23.0769H31.1298C31.3251 23.0769 31.5505 23.2422 31.5505 23.4375V25.3606C31.5505 25.5559 31.3251 25.7812 31.1298 25.7812H27.7043V27.7043H30.9495C31.1448 27.7043 31.3702 27.8696 31.3702 28.0649V29.988C31.3702 30.1833 31.1448 30.4087 30.9495 30.4087H27.7043V34.4351C27.7043 34.6304 27.479 34.7957 27.2837 34.7957H25.1803C24.985 34.7957 24.8197 34.6304 24.8197 34.4351V23.4375C24.8197 23.2422 24.985 23.0769 25.1803 23.0769ZM6.55048 25.601V28.2452H6.91106C7.8726 28.2452 8.47356 27.7043 8.47356 26.7428C8.66887 25.7812 7.85757 25.601 7.09135 25.601H6.55048ZM16.1659 25.601V32.3317H16.5264C17.488 32.3317 18.2467 32.1289 18.6298 31.5505C19.2082 30.9721 19.4111 30.003 19.4111 28.8462C19.7942 26.7278 18.8702 25.601 16.9471 25.601H16.1659Z" fill="#00A3FF"/>
</svg>
