<svg width="20" height="27" viewBox="0 0 20 27" fill="none" xmlns="http://www.w3.org/2000/svg">
<path d="M4.91563 13.6394C4.91563 12.7374 5.64689 12.0061 6.54896 12.0061H13.0823C13.9844 12.0061 14.7156 12.7374 14.7156 13.6394C14.7156 14.5415 13.9844 15.2728 13.0823 15.2728H6.54896C5.64689 15.2728 4.91563 14.5415 4.91563 13.6394Z" fill="#00ABB9"/>
<path d="M6.54896 16.9061C5.64689 16.9061 4.91563 17.6374 4.91563 18.5394C4.91563 19.4415 5.64689 20.1728 6.54896 20.1728H13.0823C13.9844 20.1728 14.7156 19.4415 14.7156 18.5394C14.7156 17.6374 13.9844 16.9061 13.0823 16.9061H6.54896Z" fill="#00ABB9"/>
<path fill-rule="evenodd" clip-rule="evenodd" d="M9.81563 0.572754C10.7177 0.572754 11.449 1.30402 11.449 2.20609H14.0623C14.4231 2.20609 14.7156 2.49859 14.7156 2.85942V3.83942H17.9823C18.8844 3.83942 19.6156 4.57069 19.6156 5.47275V25.0728C19.6156 25.9748 18.8844 26.7061 17.9823 26.7061H1.64896C0.746893 26.7061 0.015625 25.9748 0.015625 25.0728V5.47275C0.015625 4.57069 0.746893 3.83942 1.64896 3.83942H4.91563V2.85942C4.91563 2.49859 5.20813 2.20609 5.56896 2.20609H8.18229C8.18229 1.30402 8.91356 0.572754 9.81563 0.572754ZM4.91563 7.10609V8.73942H14.7156V7.10609H16.349V23.4394H3.28229V7.10609H4.91563ZM9.81563 7.10609C10.7177 7.10609 11.449 6.37482 11.449 5.47275C11.449 4.57069 10.7177 3.83942 9.81563 3.83942C8.91356 3.83942 8.18229 4.57069 8.18229 5.47275C8.18229 6.37482 8.91356 7.10609 9.81563 7.10609Z" fill="#00ABB9"/>
</svg>
