<svg width="50" height="50" viewBox="0 0 50 50" fill="none" xmlns="http://www.w3.org/2000/svg">
<path d="M0 3C0 1.34315 1.34315 0 3 0H47C48.6569 0 50 1.34315 50 3V47C50 48.6569 48.6569 50 47 50H3C1.34315 50 0 48.6569 0 47V3Z" fill="#00ABB9"/>
<path d="M33.5318 9.3813C33.3935 9.3944 33.2544 9.42927 33.1212 9.48395C32.59 9.70412 32.2446 10.2223 32.2446 10.7962V13.6371H13.7788C12.2262 13.6371 10.9379 14.9253 10.9379 16.478V23.5802C10.9352 23.7684 10.97 23.9553 11.0402 24.13C11.1104 24.3046 11.2146 24.4636 11.3468 24.5977C11.4789 24.7317 11.6364 24.8382 11.8101 24.9108C11.9837 24.9835 12.1701 25.0209 12.3583 25.0209C12.5466 25.0209 12.733 24.9835 12.9066 24.9108C13.0803 24.8382 13.2378 24.7317 13.3699 24.5977C13.5021 24.4636 13.6063 24.3046 13.6765 24.13C13.7467 23.9553 13.7815 23.7684 13.7788 23.5802V16.478H32.2446V19.3189C32.2446 19.8927 32.59 20.4109 33.1212 20.6311C33.2974 20.7036 33.4818 20.7393 33.665 20.7393C34.0343 20.7393 34.398 20.5945 34.6693 20.3232L38.9306 16.0618C39.486 15.5064 39.486 14.6086 38.9306 14.0532L34.6693 9.7919C34.3646 9.48722 33.947 9.34202 33.5318 9.3813ZM37.9042 24.9812C37.5279 24.9871 37.1694 25.142 36.9072 25.412C36.6451 25.6819 36.5007 26.0448 36.5059 26.4211V33.5233H18.0401V30.6824C18.0401 30.1086 17.6947 29.5903 17.1634 29.3702C16.9873 29.2977 16.8029 29.262 16.6197 29.262C16.2504 29.262 15.8867 29.4068 15.6154 29.6781L11.354 33.9395C10.7987 34.4949 10.7987 35.3941 11.354 35.9481L15.6154 40.2094C16.0216 40.6156 16.6308 40.7361 17.1634 40.5173C17.6947 40.2972 18.0401 39.7804 18.0401 39.2051V36.3642H36.5059C38.0585 36.3642 39.3468 35.0759 39.3468 33.5233V26.4211C39.3494 26.231 39.3138 26.0424 39.2422 25.8664C39.1706 25.6903 39.0644 25.5304 38.9299 25.3962C38.7954 25.2619 38.6353 25.156 38.4591 25.0847C38.2829 25.0135 38.0942 24.9783 37.9042 24.9812Z" fill="white"/>
</svg>
