<svg width="50" height="50" viewBox="0 0 50 50" fill="none" xmlns="http://www.w3.org/2000/svg">
<rect width="50" height="50" rx="3" />
<path d="M34.2857 10C31.9143 10 30 11.9143 30 14.2857C30 15.2 30.2858 16.0574 30.8287 16.8002L33.5999 20.5714C33.7713 20.8 34.0286 20.9141 34.2857 20.9141C34.5714 20.9141 34.8001 20.7714 34.9715 20.5714L37.7427 16.8002C38.2856 16.0574 38.5714 15.2 38.5714 14.2857C38.5714 11.9143 36.6571 10 34.2857 10ZM34.2857 11.7143C35.7143 11.7143 36.8571 12.8571 36.8571 14.2857C36.8571 14.8286 36.6859 15.3426 36.3717 15.7712L34.2857 18.5999L32.1998 15.7712C31.8855 15.3426 31.7143 14.8286 31.7143 14.2857C31.7143 12.8571 32.8571 11.7143 34.2857 11.7143ZM17.1429 21.4286C13.2 21.4286 10 24.6286 10 28.5714C10 30.0857 10.4569 31.5427 11.3426 32.7427C11.3712 32.7999 11.4285 32.8285 11.457 32.8856L16.457 39.6574C16.6285 39.8574 16.8571 40 17.1429 40C17.4286 40 17.6573 39.8574 17.8287 39.6574L22.8287 32.8856L22.9141 32.7712L22.9431 32.7427C23.8288 31.5142 24.2857 30.0857 24.2857 28.5714C24.2857 24.6286 21.0857 21.4286 17.1429 21.4286ZM32.7612 21.6306C32.4863 21.6186 32.207 21.7394 32.0285 21.9715L31.5145 22.6574C31.2288 23.0288 31.2858 23.5714 31.6858 23.8571C31.8287 23.9714 32.0283 24.0285 32.1998 24.0285C32.4569 24.0285 32.7142 23.9144 32.8856 23.6858L33.4001 23C33.6858 22.6286 33.6002 22.0859 33.2288 21.8002C33.0895 21.6931 32.9261 21.6378 32.7612 21.6306ZM17.1429 23.1429C20.1429 23.1429 22.5714 25.5714 22.5714 28.5714C22.5714 29.7143 22.2287 30.8285 21.543 31.7427V31.7712L17.1429 37.7143L12.8287 31.8571C12.8001 31.8286 12.7713 31.7999 12.7427 31.7427C12.057 30.8285 11.7143 29.7143 11.7143 28.5714C11.7143 25.5714 14.1429 23.1429 17.1429 23.1429ZM30.1897 25.0592C29.9149 25.0472 29.6356 25.168 29.457 25.4001L28.9431 26.0859C28.6574 26.4574 28.743 27 29.1144 27.2857C29.2573 27.4 29.4569 27.457 29.6283 27.457C29.8855 27.457 30.1427 27.343 30.3142 27.1144L30.8287 26.4286C31.1144 26.0571 31.0288 25.5145 30.6574 25.2288C30.5181 25.1217 30.3546 25.0664 30.1897 25.0592ZM17.1429 25.7143C16.3851 25.7143 15.6584 26.0153 15.1226 26.5511C14.5867 27.0869 14.2857 27.8137 14.2857 28.5714C14.2857 29.3292 14.5867 30.0559 15.1226 30.5917C15.6584 31.1276 16.3851 31.4286 17.1429 31.4286C17.9006 31.4286 18.6273 31.1276 19.1632 30.5917C19.699 30.0559 20 29.3292 20 28.5714C20 27.8137 19.699 27.0869 19.1632 26.5511C18.6273 26.0153 17.9006 25.7143 17.1429 25.7143ZM29.2394 28.4392C29.0215 28.4285 28.7998 28.5002 28.6283 28.6574C28.2569 28.9431 28.2286 29.4857 28.5714 29.8571L29.1429 30.4855C29.3143 30.6569 29.5426 30.7712 29.7712 30.7712C29.9712 30.7712 30.1998 30.6858 30.3426 30.543C30.6855 30.2287 30.7144 29.6855 30.4001 29.3426L29.8287 28.7143C29.6715 28.5429 29.4573 28.4499 29.2394 28.4392ZM32.125 31.582C31.9071 31.5713 31.6859 31.6431 31.5145 31.8002C31.1716 32.1145 31.1427 32.6571 31.457 33L32.0285 33.6283C32.1999 33.7998 32.4288 33.9141 32.6574 33.9141C32.8574 33.9141 33.0859 33.8287 33.2288 33.6858C33.5716 33.3715 33.6 32.8284 33.2857 32.4855L32.7143 31.8571C32.5571 31.6857 32.3429 31.5927 32.125 31.582ZM35.0391 34.7249C34.8212 34.7142 34.6 34.7859 34.4286 34.9431C34.0857 35.2574 34.0574 35.8 34.3717 36.1429L34.9431 36.7712C35.1145 36.9426 35.3429 37.0569 35.5714 37.0569C35.7714 37.0569 36 36.9715 36.1429 36.8287C36.4857 36.5144 36.5141 35.9712 36.1998 35.6283L35.6283 35C35.4712 34.8286 35.2569 34.7356 35.0391 34.7249ZM37.9537 37.8677C37.7358 37.857 37.5141 37.9288 37.3426 38.0859C37.0569 38.3431 36.9999 38.7715 37.1713 39.1144V39.1429C37.1713 39.6286 37.5427 40 38.0285 40H38.3142C38.657 40 38.9716 39.7998 39.0859 39.4855C39.2288 39.1712 39.1716 38.8 38.9431 38.5714L38.543 38.1429C38.3858 37.9714 38.1715 37.8785 37.9537 37.8677ZM20.8571 38.2857C20.3714 38.2857 20 38.6571 20 39.1429C20 39.6286 20.3714 40 20.8571 40H21.7143C22.2 40 22.5714 39.6286 22.5714 39.1429C22.5714 38.6571 22.2 38.2857 21.7143 38.2857H20.8571ZM25.1429 38.2857C24.6571 38.2857 24.2857 38.6571 24.2857 39.1429C24.2857 39.6286 24.6571 40 25.1429 40H26C26.4857 40 26.8571 39.6286 26.8571 39.1429C26.8571 38.6571 26.4857 38.2857 26 38.2857H25.1429ZM29.4286 38.2857C28.9429 38.2857 28.5714 38.6571 28.5714 39.1429C28.5714 39.6286 28.9429 40 29.4286 40H30.2857C30.7714 40 31.1429 39.6286 31.1429 39.1429C31.1429 38.6571 30.7714 38.2857 30.2857 38.2857H29.4286ZM33.7143 38.2857C33.2286 38.2857 32.8571 38.6571 32.8571 39.1429C32.8571 39.6286 33.2286 40 33.7143 40H34.5714C35.0571 40 35.4286 39.6286 35.4286 39.1429C35.4286 38.6571 35.0571 38.2857 34.5714 38.2857H33.7143Z" fill="white"/>
</svg>
