<svg width="313" height="94" viewBox="0 0 313 94" fill="none" xmlns="http://www.w3.org/2000/svg">
<path d="M19.3285 69.2171C18.4746 68.5995 17.3879 68.1363 16.3788 67.7502C14.671 66.901 13.0409 66.2061 12.1094 65.0481C11.566 64.3532 11.4884 63.5812 11.8765 62.8863C12.2647 62.0371 13.1962 61.4966 14.2053 61.651C14.9815 61.7282 16.4564 62.2687 17.3103 65.0481L17.3879 65.2025L17.4655 65.1253C25.7713 58.8717 25.7713 58.8717 25.7713 58.8717V58.7944C25.6937 58.7172 22.9768 51.3055 13.8172 51.3055C9.47019 51.3055 5.89946 52.618 3.41548 55.0114C1.24199 57.2503 -4.74128e-08 60.493 0.0776245 63.7356C0.232873 71.7649 5.97709 74.6987 10.1688 76.9377C11.9542 77.8641 13.5843 78.7134 14.2053 79.7171C14.7487 80.5663 14.9039 81.3384 14.5158 81.956C14.1277 82.5736 13.2738 82.9597 12.3423 82.8825C10.9451 82.8053 9.62544 81.8016 9.00444 80.2575L8.92682 80.1803L0 86.2795L0.0776245 86.3567C3.26023 90.8346 8.46107 93.3824 13.5067 93.3824C14.8263 93.3824 16.1459 93.228 17.3879 92.9191C22.4335 91.4522 25.6161 87.2832 25.9266 81.4928C26.3147 76.2428 24.0636 72.1509 19.3285 69.2171Z" fill="url(#paint0_linear_876_263)"/>
<path d="M69.3763 67.1326C66.8923 58.3312 58.897 51.9232 49.3492 51.9232C37.8607 51.9232 28.5458 61.265 28.5458 72.6914C28.5458 84.195 37.8607 93.4596 49.3492 93.4596C54.0843 93.4596 58.4312 91.9155 61.9243 89.2133C62.1572 89.0589 62.3901 89.0589 62.6229 89.1361L69.0658 92.8419C69.5315 93.1507 70.0749 92.8419 70.0749 92.3015V72.6914C70.0749 70.7613 69.842 68.9083 69.3763 67.1326ZM59.1299 74.3127C58.3536 79.0222 54.2395 82.6508 49.3492 82.6508C48.8058 82.6508 48.34 82.6508 47.8743 82.5736C43.0616 81.8016 39.3356 77.7097 39.3356 72.6914C39.3356 67.2098 43.8378 62.7319 49.3492 62.7319C54.8605 62.7319 59.2851 67.2098 59.2851 72.6914C59.2851 73.2318 59.2075 73.7722 59.1299 74.3127Z" fill="url(#paint1_linear_876_263)"/>
<path d="M86.3281 93.5368V-6H74.4516V93.5368H86.3281Z" fill="url(#paint2_linear_876_263)"/>
<path d="M118.44 52.3092H118.362L118.207 72.1509C118.207 75.2392 117.353 82.4964 110.134 82.5736C107.961 82.5736 106.098 81.956 104.778 80.5663C102.993 78.7906 102.061 75.934 102.061 71.9965V52.3092H90.6502V73.9267C90.6502 80.4891 92.7461 85.8163 96.6273 89.4449C100.043 92.6875 104.778 94.2316 109.823 93.8456C117.741 93.3052 122.088 89.4449 122.632 88.9045L129.385 93.9228L129.54 94L129.695 52.4636V52.3092H118.44Z" fill="url(#paint3_linear_876_263)"/>
<path d="M162.979 -6V55.9379C158.477 53.9305 155.993 53.4673 153.509 53.4673C142.021 53.4673 132.783 62.5003 132.783 73.695C132.783 84.8898 142.021 94 153.509 94C155.993 94 158.477 93.5368 160.728 92.6875C162.591 91.9927 164.377 91.0662 165.929 89.9081C166.162 89.6765 166.55 89.6765 166.861 89.8309L172.915 93.228C173.459 93.5368 174.157 93.1507 174.157 92.5331V-6H162.979ZM163.135 75.0847C162.979 76.0884 162.669 77.0921 162.203 78.0185C160.573 81.1839 157.235 83.3457 153.509 83.3457C152.966 83.3457 152.5 83.2685 152.034 83.1913C147.299 82.5736 143.651 78.4046 143.651 73.4634C143.651 68.0591 148.075 63.6584 153.509 63.6584C157.235 63.6584 160.573 65.8201 162.203 68.9855C162.902 70.298 163.29 71.8421 163.29 73.4634C163.29 74.0039 163.212 74.5443 163.135 75.0847Z" fill="url(#paint4_linear_876_263)"/>
<path d="M218.043 67.1326V67.0554C217.111 63.9672 215.481 61.1106 213.308 58.7944C211.523 56.8643 209.271 55.243 206.787 54.0849C206.322 53.8533 205.778 53.6217 205.235 53.3901C205.08 53.3129 204.924 53.3129 204.769 53.2357C204.536 53.1585 204.226 53.0813 203.993 52.9268C203.527 52.8496 202.984 52.6952 202.518 52.5408C201.897 52.4636 201.276 52.3092 200.655 52.232C200.345 52.1548 200.034 52.1548 199.724 52.1548C199.491 52.0776 199.258 52.0776 199.025 52.0776C198.87 52.0776 198.714 52.0776 198.559 52.0776C197.861 52.0004 197.24 52.0776 196.619 52.0776C196.386 52.0776 196.153 52.0776 195.92 52.1548C195.609 52.1548 195.299 52.232 194.988 52.232C194.367 52.3092 193.746 52.4636 193.125 52.5408C192.66 52.6952 192.116 52.8496 191.651 52.9268C191.418 53.0813 191.107 53.1585 190.874 53.2357C190.719 53.3129 190.564 53.3129 190.409 53.3901C182.18 56.4783 176.436 64.4304 176.747 73.6178C176.824 75.7796 177.212 77.7869 177.911 79.7171C178.92 82.8053 180.706 85.5846 182.957 87.8236C184.975 89.8309 187.459 91.375 190.098 92.4559C190.176 92.4559 190.253 92.4559 190.331 92.5331C190.719 92.6103 191.03 92.7647 191.418 92.9191C191.573 92.9191 191.806 92.9963 191.961 93.0736C192.272 93.1508 192.582 93.228 192.893 93.3052C193.436 93.3824 193.902 93.5368 194.445 93.614C194.678 93.614 194.988 93.6912 195.221 93.6912C195.299 93.6912 195.377 93.7684 195.454 93.7684C195.609 93.7684 195.842 93.7684 195.998 93.7684C196.153 93.8456 196.308 93.8456 196.463 93.8456C196.619 93.8456 196.774 93.8456 196.929 93.8456C197.162 93.8456 197.395 93.8456 197.705 93.8456H197.938C198.249 93.8456 198.482 93.8456 198.714 93.8456C198.87 93.8456 199.025 93.8456 199.18 93.8456C199.335 93.8456 199.491 93.8456 199.646 93.7684C199.801 93.7684 200.034 93.7684 200.189 93.7684C200.267 93.7684 200.345 93.7684 200.422 93.6912C200.655 93.6912 200.966 93.614 201.198 93.614C201.742 93.5368 202.208 93.3824 202.751 93.3052C203.061 93.228 203.372 93.1508 203.682 93.0736C203.838 92.9963 204.071 92.9191 204.226 92.9191C204.614 92.7647 204.924 92.6103 205.313 92.5331C205.39 92.4559 205.468 92.4559 205.545 92.4559C206.477 92.0699 207.408 91.6067 208.262 91.1434C208.262 91.1434 208.262 91.1434 208.262 91.0662C212.92 88.5184 216.413 84.1949 217.965 79.0222L207.564 75.8568C207.02 77.7869 205.856 79.4082 204.381 80.6435C202.906 81.8788 201.043 82.7281 199.025 82.9597C198.714 82.9597 198.482 83.0369 198.171 83.0369C198.016 83.0369 197.783 83.0369 197.55 83.0369C197.472 83.0369 197.472 83.0369 197.472 83.0369C197.162 83.0369 196.851 82.9597 196.619 82.9597C195.377 82.8053 194.135 82.4192 193.048 81.8788L208.029 73.0002L218.043 67.1326ZM187.692 73.9267C187.692 73.695 187.692 73.5406 187.614 73.309C187.537 70.1436 188.856 67.3642 191.03 65.4341C192.737 63.89 194.988 62.9635 197.472 62.8863H198.171C200.189 62.9635 201.975 63.5812 203.45 64.5848L187.692 73.9267Z" fill="url(#paint5_linear_876_263)"/>
<path d="M254.238 55.8607C253.928 55.4746 253.54 55.1658 252.996 54.857V54.7798C252.841 54.7798 252.764 54.7026 252.686 54.6254C252.531 54.471 252.375 54.3938 252.22 54.3166L252.143 54.2393C249.115 52.5408 245.544 51.6916 241.818 52.0004C234.522 52.5408 230.252 56.4011 229.166 57.6364C229.01 57.7908 228.778 57.7908 228.622 57.6364L223.033 54.0849C222.878 54.0077 222.645 54.0077 222.412 54.0849C222.179 54.1621 222.102 54.3937 222.102 54.6254L221.947 93.0736C221.947 93.3052 222.179 93.5368 222.412 93.5368L232.814 93.614C233.047 93.614 233.28 93.3824 233.28 93.1508L233.435 73.695C233.513 64.8165 238.481 63.3495 241.43 63.2723C242.439 63.2723 245.622 63.3495 247.873 65.9745C248.028 66.0517 248.184 66.1289 248.339 66.1289C248.572 66.1289 248.727 66.0517 248.805 65.8973C250.202 63.8128 254.394 56.9415 254.471 56.8643C254.627 56.5555 254.549 56.0923 254.238 55.8607Z" fill="url(#paint6_linear_876_263)"/>
<path d="M267.847 53.3901L257.135 53.3129H257.057L257.212 93.9228V94H267.925H268.002L267.847 53.4673V53.3901ZM263.034 34.3976C262.801 34.3976 262.568 34.3976 262.336 34.3976C259.231 34.552 256.591 36.9454 256.281 40.0336C256.203 40.3424 256.203 40.6512 256.203 40.96C256.359 44.0483 258.61 46.596 261.715 46.9821C262.025 46.9821 262.258 46.9821 262.568 46.9821C262.646 46.9821 262.646 46.9821 262.724 46.9821C262.801 46.9821 262.879 46.9821 262.879 46.9821C262.957 46.9821 263.034 46.9821 263.034 46.9821C263.112 46.9821 263.112 46.9821 263.189 46.9821C263.267 46.9821 263.267 46.9821 263.345 46.9821L263.5 46.9049C263.578 46.9049 263.578 46.9049 263.655 46.9049C263.655 46.9049 263.655 46.9049 263.733 46.9049C263.733 46.9049 263.81 46.9048 263.81 46.8276H263.888H263.966C266.605 46.21 268.546 44.0483 268.856 41.3461C268.856 41.0373 268.856 40.6512 268.856 40.3424C268.701 37.177 266.139 34.6292 263.034 34.3976Z" fill="url(#paint7_linear_876_263)"/>
<path d="M312.029 67.1326C309.545 58.3312 301.549 51.9232 292.001 51.9232C280.513 51.9232 271.198 61.265 271.198 72.6914C271.198 84.195 280.513 93.4596 292.001 93.4596C296.737 93.4596 301.084 91.9155 304.577 89.2133C304.81 89.0589 305.042 89.0589 305.275 89.1361L311.718 92.8419C312.184 93.1507 312.727 92.8419 312.727 92.3015V72.6914C312.727 70.7613 312.494 68.9083 312.029 67.1326ZM301.782 74.3127C301.006 79.0222 296.892 82.6508 292.001 82.6508C291.458 82.6508 290.992 82.6508 290.527 82.5736C285.714 81.8016 281.988 77.7097 281.988 72.6914C281.988 67.2098 286.49 62.7319 292.001 62.7319C297.513 62.7319 301.937 67.2098 301.937 72.6914C301.937 73.2318 301.86 73.7722 301.782 74.3127Z" fill="url(#paint8_linear_876_263)"/>
<defs>
<linearGradient id="paint0_linear_876_263" x1="313" y1="-6.00001" x2="-2.31618e-06" y2="94" gradientUnits="userSpaceOnUse">
<stop stop-color="#00A3FF"/>
<stop offset="1" stop-color="#00ABB9"/>
</linearGradient>
<linearGradient id="paint1_linear_876_263" x1="313" y1="-6.00001" x2="-2.31618e-06" y2="94" gradientUnits="userSpaceOnUse">
<stop stop-color="#00A3FF"/>
<stop offset="1" stop-color="#00ABB9"/>
</linearGradient>
<linearGradient id="paint2_linear_876_263" x1="313" y1="-6.00001" x2="-2.31618e-06" y2="94" gradientUnits="userSpaceOnUse">
<stop stop-color="#00A3FF"/>
<stop offset="1" stop-color="#00ABB9"/>
</linearGradient>
<linearGradient id="paint3_linear_876_263" x1="313" y1="-6.00001" x2="-2.31618e-06" y2="94" gradientUnits="userSpaceOnUse">
<stop stop-color="#00A3FF"/>
<stop offset="1" stop-color="#00ABB9"/>
</linearGradient>
<linearGradient id="paint4_linear_876_263" x1="313" y1="-6.00001" x2="-2.31618e-06" y2="94" gradientUnits="userSpaceOnUse">
<stop stop-color="#00A3FF"/>
<stop offset="1" stop-color="#00ABB9"/>
</linearGradient>
<linearGradient id="paint5_linear_876_263" x1="313" y1="-6.00001" x2="-2.31618e-06" y2="94" gradientUnits="userSpaceOnUse">
<stop stop-color="#00A3FF"/>
<stop offset="1" stop-color="#00ABB9"/>
</linearGradient>
<linearGradient id="paint6_linear_876_263" x1="313" y1="-6.00001" x2="-2.31618e-06" y2="94" gradientUnits="userSpaceOnUse">
<stop stop-color="#00A3FF"/>
<stop offset="1" stop-color="#00ABB9"/>
</linearGradient>
<linearGradient id="paint7_linear_876_263" x1="313" y1="-6.00001" x2="-2.31618e-06" y2="94" gradientUnits="userSpaceOnUse">
<stop stop-color="#00A3FF"/>
<stop offset="1" stop-color="#00ABB9"/>
</linearGradient>
<linearGradient id="paint8_linear_876_263" x1="313" y1="-6.00001" x2="-2.31618e-06" y2="94" gradientUnits="userSpaceOnUse">
<stop stop-color="#00A3FF"/>
<stop offset="1" stop-color="#00ABB9"/>
</linearGradient>
</defs>
</svg>
