<svg width="245" height="67" viewBox="0 0 245 67" fill="none" xmlns="http://www.w3.org/2000/svg">
<path d="M15.1425 47.6694C14.4736 47.1876 13.6222 46.8263 12.8316 46.5252C11.4937 45.8628 10.2166 45.3208 9.48689 44.4175C9.06119 43.8755 9.00038 43.2733 9.30445 42.7313C9.60851 42.0689 10.3383 41.6474 11.1288 41.7678C11.737 41.828 12.8924 42.2496 13.5614 44.4175L13.6222 44.5379L13.683 44.4777C20.19 39.5999 20.19 39.5999 20.19 39.5999V39.5397C20.1292 39.4795 18.0008 33.6983 10.8248 33.6983C7.41923 33.6983 4.62182 34.7221 2.67579 36.5889C0.973014 38.3353 -3.71446e-08 40.8645 0.0608133 43.3937C0.18244 49.6566 4.68263 51.945 7.96655 53.6914C9.36526 54.414 10.6423 55.0764 11.1288 55.8593C11.5545 56.5217 11.6762 57.1239 11.3721 57.6057C11.068 58.0874 10.3991 58.3885 9.66933 58.3283C8.57469 58.2681 7.54086 57.4852 7.05435 56.2808L6.99354 56.2206L0 60.978L0.0608133 61.0382C2.55416 64.531 6.62866 66.5182 10.5815 66.5182C11.6154 66.5182 12.6492 66.3978 13.6222 66.1569C17.5751 65.0127 20.0684 61.7609 20.3117 57.2444C20.6157 53.1494 18.8521 49.9577 15.1425 47.6694Z" />
<path d="M54.3515 46.0434C52.4054 39.1783 46.1417 34.1801 38.6616 34.1801C29.6612 34.1801 22.3636 41.4667 22.3636 50.3793C22.3636 59.3521 29.6612 66.5785 38.6616 66.5785C42.3712 66.5785 45.7768 65.3741 48.5134 63.2664C48.6958 63.1459 48.8783 63.1459 49.0607 63.2061L54.1082 66.0967C54.4731 66.3376 54.8988 66.0967 54.8988 65.6752V50.3793C54.8988 48.8738 54.7164 47.4285 54.3515 46.0434ZM46.3241 51.6439C45.716 55.3173 42.4929 58.1477 38.6616 58.1477C38.2359 58.1477 37.8711 58.1477 37.5062 58.0874C33.7357 57.4852 30.8167 54.2936 30.8167 50.3793C30.8167 46.1036 34.3439 42.6109 38.6616 42.6109C42.9794 42.6109 46.4457 46.1036 46.4457 50.3793C46.4457 50.8008 46.3849 51.2223 46.3241 51.6439Z" />
<path d="M67.6321 66.6387V-11H58.3276V66.6387H67.6321Z" />
<path d="M92.7893 34.4812H92.7285L92.6069 49.9577C92.6069 52.3665 91.9379 58.0272 86.2823 58.0874C84.5795 58.0874 83.12 57.6057 82.0862 56.5217C80.6875 55.1367 79.9577 52.9085 79.9577 49.8373V34.4812H71.0181V51.3428C71.0181 56.4615 72.6601 60.6167 75.7008 63.447C78.3766 65.9763 82.0862 67.1807 86.039 66.8796C92.242 66.458 95.6476 63.447 96.0733 63.0255L101.364 66.9398L101.486 67L101.607 34.6016V34.4812H92.7893Z" />
<path d="M127.683 -11V37.3115C124.156 35.7458 122.21 35.3845 120.264 35.3845C111.263 35.3845 104.027 42.4302 104.027 51.1621C104.027 59.894 111.263 67 120.264 67C122.21 67 124.156 66.6387 125.919 65.9763C127.379 65.4343 128.778 64.7116 129.994 63.8083C130.176 63.6277 130.48 63.6277 130.724 63.7481L135.467 66.3978C135.893 66.6387 136.44 66.3376 136.44 65.8558V-11H127.683ZM127.805 52.2461C127.683 53.029 127.44 53.8118 127.075 54.5345C125.798 57.0035 123.183 58.6896 120.264 58.6896C119.838 58.6896 119.473 58.6294 119.108 58.5692C115.399 58.0874 112.54 54.8356 112.54 50.9815C112.54 46.7661 116.007 43.3335 120.264 43.3335C123.183 43.3335 125.798 45.0197 127.075 47.4887C127.622 48.5124 127.926 49.7169 127.926 50.9815C127.926 51.403 127.865 51.8246 127.805 52.2461Z" />
<path d="M170.821 46.0434V45.9832C170.092 43.5744 168.815 41.3463 167.112 39.5397C165.713 38.0342 163.95 36.7695 162.003 35.8662C161.639 35.6856 161.213 35.5049 160.787 35.3243C160.666 35.264 160.544 35.264 160.422 35.2038C160.24 35.1436 159.997 35.0834 159.814 34.9629C159.449 34.9027 159.024 34.7823 158.659 34.6618C158.172 34.6016 157.686 34.4812 157.199 34.421C156.956 34.3607 156.713 34.3607 156.469 34.3607C156.287 34.3005 156.105 34.3005 155.922 34.3005C155.801 34.3005 155.679 34.3005 155.557 34.3005C155.01 34.2403 154.523 34.3005 154.037 34.3005C153.855 34.3005 153.672 34.3005 153.49 34.3607C153.246 34.3607 153.003 34.421 152.76 34.421C152.273 34.4812 151.787 34.6016 151.3 34.6618C150.935 34.7823 150.51 34.9027 150.145 34.9629C149.962 35.0834 149.719 35.1436 149.537 35.2038C149.415 35.264 149.294 35.264 149.172 35.3243C142.726 37.7331 138.225 43.9357 138.469 51.1019C138.53 52.7881 138.834 54.3538 139.381 55.8593C140.171 58.2681 141.57 60.436 143.334 62.1824C144.915 63.7481 146.861 64.9525 148.929 65.7956C148.989 65.7956 149.05 65.7956 149.111 65.8558C149.415 65.916 149.658 66.0365 149.962 66.1569C150.084 66.1569 150.267 66.2171 150.388 66.2774C150.631 66.3376 150.875 66.3978 151.118 66.458C151.544 66.5182 151.908 66.6387 152.334 66.6989C152.517 66.6989 152.76 66.7591 152.942 66.7591C153.003 66.7591 153.064 66.8193 153.125 66.8193C153.246 66.8193 153.429 66.8193 153.55 66.8193C153.672 66.8796 153.794 66.8796 153.915 66.8796C154.037 66.8796 154.159 66.8796 154.28 66.8796C154.463 66.8796 154.645 66.8796 154.888 66.8796H155.071C155.314 66.8796 155.496 66.8796 155.679 66.8796C155.801 66.8796 155.922 66.8796 156.044 66.8796C156.165 66.8796 156.287 66.8796 156.409 66.8193C156.53 66.8193 156.713 66.8193 156.834 66.8193C156.895 66.8193 156.956 66.8193 157.017 66.7591C157.199 66.7591 157.442 66.6989 157.625 66.6989C158.051 66.6387 158.416 66.5182 158.841 66.458C159.084 66.3978 159.328 66.3376 159.571 66.2774C159.693 66.2171 159.875 66.1569 159.997 66.1569C160.301 66.0365 160.544 65.916 160.848 65.8558C160.909 65.7956 160.97 65.7956 161.03 65.7956C161.76 65.4945 162.49 65.1332 163.159 64.7719C163.159 64.7719 163.159 64.7719 163.159 64.7116C166.808 62.7244 169.544 59.3521 170.761 55.3173L162.612 52.8483C162.186 54.3538 161.274 55.6184 160.118 56.5819C158.963 57.5455 157.503 58.2079 155.922 58.3885C155.679 58.3885 155.496 58.4488 155.253 58.4488C155.132 58.4488 154.949 58.4488 154.767 58.4488C154.706 58.4488 154.706 58.4488 154.706 58.4488C154.463 58.4488 154.219 58.3885 154.037 58.3885C153.064 58.2681 152.091 57.967 151.24 57.5455L162.977 50.6202L170.821 46.0434ZM147.043 51.3428C147.043 51.1621 147.043 51.0417 146.983 50.861C146.922 48.392 147.956 46.2241 149.658 44.7186C150.996 43.5142 152.76 42.7915 154.706 42.7313H155.253C156.834 42.7915 158.233 43.2733 159.389 44.0562L147.043 51.3428Z" />
<path d="M199.178 37.2513C198.935 36.9502 198.631 36.7093 198.205 36.4684V36.4082C198.083 36.4082 198.023 36.348 197.962 36.2878C197.84 36.1673 197.719 36.1071 197.597 36.0469L197.536 35.9867C195.164 34.6618 192.367 33.9994 189.448 34.2403C183.731 34.6618 180.387 37.6728 179.535 38.6364C179.414 38.7568 179.231 38.7568 179.11 38.6364L174.731 35.8662C174.609 35.806 174.427 35.806 174.245 35.8662C174.062 35.9265 174.001 36.1071 174.001 36.2878L173.88 66.2774C173.88 66.458 174.062 66.6387 174.245 66.6387L182.394 66.6989C182.576 66.6989 182.758 66.5182 182.758 66.3376L182.88 51.1621C182.941 44.2368 186.833 43.0926 189.144 43.0324C189.934 43.0324 192.428 43.0926 194.191 45.1401C194.313 45.2003 194.435 45.2606 194.556 45.2606C194.739 45.2606 194.86 45.2003 194.921 45.0799C196.016 43.454 199.3 38.0944 199.361 38.0342C199.482 37.7933 199.421 37.432 199.178 37.2513Z" />
<path d="M209.839 35.3243L201.447 35.264H201.386L201.508 66.9398V67H209.9H209.961L209.839 35.3845V35.3243ZM206.069 20.5101C205.887 20.5101 205.704 20.5101 205.522 20.5101C203.089 20.6306 201.021 22.4974 200.778 24.9062C200.717 25.1471 200.717 25.388 200.717 25.6288C200.839 28.0376 202.603 30.0249 205.035 30.326C205.278 30.326 205.461 30.326 205.704 30.326C205.765 30.326 205.765 30.326 205.826 30.326C205.887 30.326 205.947 30.326 205.947 30.326C206.008 30.326 206.069 30.326 206.069 30.326C206.13 30.326 206.13 30.326 206.191 30.326C206.251 30.326 206.251 30.326 206.312 30.326L206.434 30.2658C206.495 30.2658 206.495 30.2658 206.555 30.2658C206.555 30.2658 206.555 30.2658 206.616 30.2658C206.616 30.2658 206.677 30.2658 206.677 30.2056H206.738H206.799C208.866 29.7238 210.387 28.0376 210.63 25.9299C210.63 25.6891 210.63 25.388 210.63 25.1471C210.508 22.6781 208.502 20.6908 206.069 20.5101Z" />
<path d="M244.453 46.0434C242.507 39.1783 236.243 34.1801 228.763 34.1801C219.762 34.1801 212.465 41.4667 212.465 50.3793C212.465 59.3521 219.762 66.5785 228.763 66.5785C232.472 66.5785 235.878 65.3741 238.615 63.2664C238.797 63.1459 238.979 63.1459 239.162 63.2061L244.209 66.0967C244.574 66.3376 245 66.0967 245 65.6752V50.3793C245 48.8738 244.818 47.4285 244.453 46.0434ZM236.425 51.6439C235.817 55.3173 232.594 58.1477 228.763 58.1477C228.337 58.1477 227.972 58.1477 227.607 58.0874C223.837 57.4852 220.918 54.2936 220.918 50.3793C220.918 46.1036 224.445 42.6109 228.763 42.6109C233.081 42.6109 236.547 46.1036 236.547 50.3793C236.547 50.8008 236.486 51.2223 236.425 51.6439Z" />
</svg>
