<svg width="55" height="49" viewBox="0 0 55 49" fill="none" xmlns="http://www.w3.org/2000/svg">
<path d="M27.5 0C24.9219 0 22.7271 1.03054 21.3179 2.59994C19.9086 4.16933 19.25 6.18171 19.25 8.16667C19.25 10.1516 19.9086 12.164 21.3179 13.7334C22.7271 15.3028 24.9219 16.3333 27.5 16.3333C30.0781 16.3333 32.2729 15.3028 33.6821 13.7334C35.0914 12.164 35.75 10.1516 35.75 8.16667C35.75 6.18171 35.0914 4.16933 33.6821 2.59994C32.2729 1.03054 30.0781 0 27.5 0ZM9.625 2.72222C7.50521 2.72222 5.6542 3.58263 4.47412 4.89681C3.29404 6.21099 2.75 7.8831 2.75 9.52778C2.75 11.1725 3.29404 12.8446 4.47412 14.1587C5.6542 15.4729 7.50521 16.3333 9.625 16.3333C11.7448 16.3333 13.5958 15.4729 14.7759 14.1587C15.956 12.8446 16.5 11.1725 16.5 9.52778C16.5 7.8831 15.956 6.21099 14.7759 4.89681C13.5958 3.58263 11.7448 2.72222 9.625 2.72222ZM45.375 2.72222C43.2552 2.72222 41.4042 3.58263 40.2241 4.89681C39.044 6.21099 38.5 7.8831 38.5 9.52778C38.5 11.1725 39.044 12.8446 40.2241 14.1587C41.4042 15.4729 43.2552 16.3333 45.375 16.3333C47.4948 16.3333 49.3458 15.4729 50.5259 14.1587C51.706 12.8446 52.25 11.1725 52.25 9.52778C52.25 7.8831 51.706 6.21099 50.5259 4.89681C49.3458 3.58263 47.4948 2.72222 45.375 2.72222ZM27.5 4.08333C29.0469 4.08333 29.9459 4.58404 30.5991 5.31152C31.2524 6.03901 31.625 7.08912 31.625 8.16667C31.625 9.24421 31.2524 10.2943 30.5991 11.0218C29.9459 11.7493 29.0469 12.25 27.5 12.25C25.9531 12.25 25.0541 11.7493 24.4009 11.0218C23.7476 10.2943 23.375 9.24421 23.375 8.16667C23.375 7.08912 23.7476 6.03901 24.4009 5.31152C25.0541 4.58404 25.9531 4.08333 27.5 4.08333ZM9.625 6.80556C10.7135 6.80556 11.2688 7.13612 11.6929 7.6084C12.117 8.08067 12.375 8.79051 12.375 9.52778C12.375 10.265 12.117 10.9749 11.6929 11.4472C11.2688 11.9194 10.7135 12.25 9.625 12.25C8.53646 12.25 7.98121 11.9194 7.55713 11.4472C7.13305 10.9749 6.875 10.265 6.875 9.52778C6.875 8.79051 7.13305 8.08067 7.55713 7.6084C7.98121 7.13612 8.53646 6.80556 9.625 6.80556ZM45.375 6.80556C46.4635 6.80556 47.0188 7.13612 47.4429 7.6084C47.867 8.08067 48.125 8.79051 48.125 9.52778C48.125 10.265 47.867 10.9749 47.4429 11.4472C47.0188 11.9194 46.4635 12.25 45.375 12.25C44.2865 12.25 43.7312 11.9194 43.3071 11.4472C42.883 10.9749 42.625 10.265 42.625 9.52778C42.625 8.79051 42.883 8.08067 43.3071 7.6084C43.7312 7.13612 44.2865 6.80556 45.375 6.80556ZM4.8125 19.0556C2.15875 19.0556 0 21.1925 0 23.8194V32.6667C0 38.6692 4.93625 43.5556 11 43.5556C11.9762 43.5556 12.9258 43.4337 13.8333 43.1887C13.2558 41.9637 12.829 40.6555 12.5952 39.2808C12.0865 39.4033 11.55 39.4722 11 39.4722C7.205 39.4722 4.125 36.4233 4.125 32.6667V23.8194C4.125 23.4383 4.4275 23.1389 4.8125 23.1389H12.4153C12.5528 21.5872 13.1584 20.1853 14.1072 19.0556H4.8125ZM19.9375 19.0556C17.3044 19.0556 15.125 21.213 15.125 23.8194V36.75C15.125 43.4912 20.69 49 27.5 49C34.31 49 39.875 43.4912 39.875 36.75V23.8194C39.875 21.213 37.6956 19.0556 35.0625 19.0556H19.9375ZM40.8928 19.0556C41.8416 20.1853 42.4472 21.5872 42.5847 23.1389H50.1875C50.5725 23.1389 50.875 23.4383 50.875 23.8194V32.6667C50.875 36.4233 47.795 39.4722 44 39.4722C43.45 39.4722 42.9135 39.4033 42.4048 39.2808C42.171 40.6555 41.7442 41.9637 41.1667 43.1887C42.0742 43.4337 43.0238 43.5556 44 43.5556C50.0638 43.5556 55 38.6692 55 32.6667V23.8194C55 21.1925 52.8413 19.0556 50.1875 19.0556H40.8928ZM19.9375 23.1389H35.0625C35.4682 23.1389 35.75 23.4179 35.75 23.8194V36.75C35.75 41.2842 32.0805 44.9167 27.5 44.9167C22.9195 44.9167 19.25 41.2842 19.25 36.75V23.8194C19.25 23.4179 19.5318 23.1389 19.9375 23.1389Z" fill="white"/>
</svg>
