<svg  width="20" height="19" viewBox="0 0 20 19" fill="none" xmlns="http://www.w3.org/2000/svg">
<path  d="M10.0253 0C9.96521 0.00313523 9.90513 0.00940651 9.8482 0.0250835C9.59204 0.0752504 9.377 0.241428 9.26631 0.476586L6.63516 5.79428L0.664473 6.67221C0.370367 6.72551 0.126859 6.93558 0.0383104 7.22091C-0.053401 7.50623 0.0224977 7.81664 0.234381 8.02671L4.51 12.1906L3.52332 18.0601C3.47272 18.358 3.59289 18.6621 3.83956 18.844C4.08624 19.0227 4.41513 19.0509 4.6871 18.9129L10 16.1287L15.3129 18.9129C15.5849 19.0509 15.9138 19.0227 16.1604 18.844C16.4071 18.6621 16.5273 18.358 16.4767 18.0601L15.49 12.1906L19.7656 8.02671C19.9775 7.81664 20.0534 7.50623 19.9617 7.22091C19.8731 6.93558 19.6296 6.72551 19.3355 6.67221L13.3648 5.79428L10.7337 0.476586C10.6072 0.197533 10.3352 0.0125417 10.0253 0ZM10 2.65885L12.1252 6.89796C12.2453 7.12998 12.473 7.28989 12.7323 7.32438L17.4634 8.02671L14.0479 11.3377C13.8519 11.5165 13.757 11.7798 13.7949 12.0401L14.6045 16.7307L10.3795 14.5233C10.1423 14.3979 9.85769 14.3979 9.62051 14.5233L5.39549 16.7307L6.20507 12.0401C6.24302 11.7798 6.14815 11.5165 5.95208 11.3377L2.53664 8.02671L7.26765 7.32438C7.52697 7.28989 7.75467 7.12998 7.87484 6.89796L10 2.65885Z" fill="#00ABB9"/>
</svg>
