<svg width="26" height="30" viewBox="0 0 26 30" fill="none" xmlns="http://www.w3.org/2000/svg">
<path d="M0 0V3.33333H3.60902V5.57292C3.60902 7.78213 4.55862 9.90258 6.25235 11.4648L10.0799 15L6.25235 18.5352C4.55862 20.0974 3.60902 22.2179 3.60902 24.4271V26.6667H0V30H3.60902H7.21805H18.0451H21.6541H25.2632V26.6667H21.6541V24.4271C21.6541 22.2181 20.7022 20.0973 19.0108 18.5352L15.1833 15L19.0108 11.4648C20.7035 9.90142 21.6541 7.78213 21.6541 5.57292V3.33333H25.2632V0H0ZM7.21805 3.33333H18.0451V5.57292C18.0451 6.90037 17.4768 8.16816 16.4591 9.10807L12.6316 12.6432L8.80404 9.10482C7.78739 8.16708 7.21805 6.90037 7.21805 5.57292V3.33333ZM12.6316 17.3568L16.4591 20.8919C17.4745 21.8298 18.0451 23.1028 18.0451 24.4271V26.6667H7.21805V24.4271C7.21805 23.0996 7.78739 21.8329 8.80404 20.8952L12.6316 17.3568Z" fill="#00ABB9"/>
</svg>
