<svg width="42" height="28" viewBox="0 0 42 28" fill="none" xmlns="http://www.w3.org/2000/svg">
<path fill-rule="evenodd" clip-rule="evenodd" d="M31.0034 0.234375H4C1.791 0.234375 0 1.89196 0 3.93641V24.2976C0 26.342 1.791 27.9996 4 27.9996H38C40.209 27.9996 42 26.342 42 24.2976V10.9995C35.9249 10.9995 31 6.2985 31 0.499512C31 0.410872 31.0012 0.322489 31.0034 0.234375Z" fill="#1565C0"/>
<path d="M12.185 9.48921L9.559 16.7378C9.559 16.7378 8.892 13.6716 8.826 13.2866C7.331 10.1297 5.125 10.3055 5.125 10.3055L7.725 19.6698V19.6679H10.886L15.257 9.48921H12.185ZM14.688 19.6698H17.559L19.295 9.48921H16.388L14.688 19.6698ZM35.007 9.48921H31.986L27.276 19.6698H30.128L30.716 18.2158H34.312L34.618 19.6698H37.231L35.007 9.48921ZM31.512 16.2713L33.075 12.424L33.893 16.2713H31.512ZM23.368 12.4564C23.368 11.8955 23.866 11.4781 25.294 11.4781C26.222 11.4781 27.285 12.1019 27.285 12.1019L27.751 9.96492C27.751 9.96492 26.393 9.48828 25.06 9.48828C22.041 9.48828 20.484 10.8247 20.484 12.5165C20.484 15.5763 24.463 15.157 24.463 16.7285C24.463 16.9978 24.232 17.6207 22.575 17.6207C20.913 17.6207 19.816 17.0571 19.816 17.0571L19.321 19.108C19.321 19.108 20.384 19.6688 22.438 19.6688C24.497 19.6688 27.353 18.2436 27.353 16.1963C27.353 13.7336 23.368 13.5559 23.368 12.4564Z" fill="white"/>
<path d="M9.21338 14.9912L8.24738 10.5969C8.24738 10.5969 7.81038 9.64453 6.67438 9.64453C5.53838 9.64453 2.23438 9.64453 2.23438 9.64453C2.23438 9.64453 7.89538 11.192 9.21338 14.9912Z" fill="#FFC107"/>
</svg>
